<mxfile host="app.diagrams.net" modified="2023-11-21T02:47:14.413Z" agent="Mozilla/5.0 (Windows NT 10.0; Win64; x64) AppleWebKit/537.36 (KHTML, like Gecko) Chrome/119.0.0.0 Safari/537.36" etag="qv3rZgYFTnjZmgqIkiuz" version="21.7.4" type="github">
  <diagram name="第 1 页" id="x_bTeJKKa33n8SwNwRoZ">
    <mxGraphModel dx="2555" dy="932" grid="1" gridSize="10" guides="1" tooltips="1" connect="1" arrows="1" fold="1" page="1" pageScale="1" pageWidth="827" pageHeight="1169" math="0" shadow="0">
      <root>
        <mxCell id="0" />
        <mxCell id="1" parent="0" />
        <mxCell id="mna81Xxy5MV_5b3Kb8om-2" value="OD=询价交易对手实际占款天数&lt;br&gt;" style="text;html=1;strokeColor=none;fillColor=none;align=center;verticalAlign=middle;whiteSpace=wrap;rounded=0;" vertex="1" parent="1">
          <mxGeometry x="240" y="80" width="220" height="30" as="geometry" />
        </mxCell>
        <mxCell id="mna81Xxy5MV_5b3Kb8om-10" value="初始数据" style="swimlane;horizontal=0;whiteSpace=wrap;html=1;" vertex="1" parent="1">
          <mxGeometry x="-710" y="280" width="1780" height="270" as="geometry" />
        </mxCell>
        <mxCell id="mna81Xxy5MV_5b3Kb8om-27" value="（基金：单笔分配金额最小值：单笔分配金额最大值：回购期限最小值：回购期限最大值：询价金额：优先级）" style="text;html=1;strokeColor=none;fillColor=none;align=center;verticalAlign=middle;whiteSpace=wrap;rounded=0;" vertex="1" parent="mna81Xxy5MV_5b3Kb8om-10">
          <mxGeometry x="840" y="170" width="600" height="30" as="geometry" />
        </mxCell>
        <mxCell id="mna81Xxy5MV_5b3Kb8om-8" value="交易对手" style="rounded=0;whiteSpace=wrap;html=1;fillColor=#d5e8d4;strokeColor=#82b366;" vertex="1" parent="mna81Xxy5MV_5b3Kb8om-10">
          <mxGeometry x="1540" y="100" width="120" height="60" as="geometry" />
        </mxCell>
        <mxCell id="mna81Xxy5MV_5b3Kb8om-26" value="（交易对手：利率：回购期限：金额：指定基金）" style="text;html=1;strokeColor=none;fillColor=none;align=center;verticalAlign=middle;whiteSpace=wrap;rounded=0;" vertex="1" parent="mna81Xxy5MV_5b3Kb8om-10">
          <mxGeometry x="1460" y="170" width="310" height="30" as="geometry" />
        </mxCell>
        <mxCell id="mna81Xxy5MV_5b3Kb8om-3" value="询价任务" style="rounded=0;whiteSpace=wrap;html=1;fillColor=#1ba1e2;strokeColor=#006EAF;fontColor=#ffffff;" vertex="1" parent="mna81Xxy5MV_5b3Kb8om-10">
          <mxGeometry x="1064" y="100" width="120" height="60" as="geometry" />
        </mxCell>
        <mxCell id="mna81Xxy5MV_5b3Kb8om-7" value="询价任务分量" style="rounded=0;whiteSpace=wrap;html=1;fillColor=#dae8fc;strokeColor=#6c8ebf;" vertex="1" parent="mna81Xxy5MV_5b3Kb8om-10">
          <mxGeometry x="170" y="105" width="120" height="60" as="geometry" />
        </mxCell>
        <mxCell id="mna81Xxy5MV_5b3Kb8om-4" value="Relation" style="endArrow=open;html=1;endSize=12;startArrow=diamondThin;startSize=14;startFill=0;edgeStyle=orthogonalEdgeStyle;rounded=0;entryX=1;entryY=0.5;entryDx=0;entryDy=0;exitX=-0.025;exitY=0.597;exitDx=0;exitDy=0;exitPerimeter=0;" edge="1" parent="mna81Xxy5MV_5b3Kb8om-10" source="mna81Xxy5MV_5b3Kb8om-3">
          <mxGeometry relative="1" as="geometry">
            <mxPoint x="430" y="134.8" as="sourcePoint" />
            <mxPoint x="290" y="134.8" as="targetPoint" />
          </mxGeometry>
        </mxCell>
        <mxCell id="mna81Xxy5MV_5b3Kb8om-5" value="1" style="edgeLabel;resizable=0;html=1;align=left;verticalAlign=top;" connectable="0" vertex="1" parent="mna81Xxy5MV_5b3Kb8om-4">
          <mxGeometry x="-1" relative="1" as="geometry">
            <mxPoint x="-20" as="offset" />
          </mxGeometry>
        </mxCell>
        <mxCell id="mna81Xxy5MV_5b3Kb8om-6" value="N" style="edgeLabel;resizable=0;html=1;align=right;verticalAlign=top;" connectable="0" vertex="1" parent="mna81Xxy5MV_5b3Kb8om-4">
          <mxGeometry x="1" relative="1" as="geometry">
            <mxPoint x="10" as="offset" />
          </mxGeometry>
        </mxCell>
        <mxCell id="mna81Xxy5MV_5b3Kb8om-29" value="（询价任务ID：实际最小占款天数：实际最大占款天数：询价金额最小值：询价金额最大值：回购期限最小值：回购期限最大值：询价金额最大剩余量）" style="text;html=1;strokeColor=none;fillColor=none;align=center;verticalAlign=middle;whiteSpace=wrap;rounded=0;" vertex="1" parent="mna81Xxy5MV_5b3Kb8om-10">
          <mxGeometry x="20" y="170" width="820" height="30" as="geometry" />
        </mxCell>
        <mxCell id="mna81Xxy5MV_5b3Kb8om-30" value="基金" style="rounded=0;whiteSpace=wrap;html=1;fillColor=#e51400;fontColor=#ffffff;strokeColor=#B20000;" vertex="1" parent="1">
          <mxGeometry x="114" y="160" width="120" height="60" as="geometry" />
        </mxCell>
        <mxCell id="mna81Xxy5MV_5b3Kb8om-31" value="市场" style="rounded=0;whiteSpace=wrap;html=1;fillColor=#76608a;fontColor=#ffffff;strokeColor=#432D57;" vertex="1" parent="1">
          <mxGeometry x="470" y="160" width="120" height="60" as="geometry" />
        </mxCell>
        <mxCell id="mna81Xxy5MV_5b3Kb8om-32" value="（市场情绪）" style="text;html=1;strokeColor=none;fillColor=none;align=center;verticalAlign=middle;whiteSpace=wrap;rounded=0;" vertex="1" parent="1">
          <mxGeometry x="490" y="220" width="80" height="30" as="geometry" />
        </mxCell>
        <mxCell id="mna81Xxy5MV_5b3Kb8om-35" value="（单笔分配金额最小值：单笔分配金额最大值）" style="text;html=1;strokeColor=none;fillColor=none;align=center;verticalAlign=middle;whiteSpace=wrap;rounded=0;" vertex="1" parent="1">
          <mxGeometry x="10" y="220" width="336" height="30" as="geometry" />
        </mxCell>
      </root>
    </mxGraphModel>
  </diagram>
</mxfile>
